<svg width="27" height="27" viewBox="0 0 27 27" fill="none" xmlns="http://www.w3.org/2000/svg">
<path d="M14.8059 0.955798C7.64111 0.472346 1.44162 5.88616 0.95607 13.0478C0.802821 15.2895 1.23294 17.5326 2.20451 19.5585C3.17608 21.5844 4.65595 23.3241 6.49989 24.6079C8.34383 25.8918 10.4889 26.676 12.7261 26.8841C14.9633 27.0923 17.2163 26.7173 19.2654 25.7957C19.4346 25.721 19.5826 25.6055 19.6961 25.4596C19.8096 25.3136 19.8851 25.1418 19.9159 24.9594C19.9466 24.7771 19.9316 24.59 19.8722 24.4149C19.8128 24.2398 19.7108 24.0821 19.5755 23.9561C19.4071 23.8046 19.1975 23.7064 18.9733 23.6739C18.7492 23.6414 18.5203 23.676 18.3158 23.7733C18.2027 23.8236 18.0979 23.8718 18.0152 23.9064C16.6844 24.4522 15.2573 24.7242 13.8191 24.7062C13.7217 24.7052 13.6253 24.7041 13.5253 24.6994L13.2068 24.6784C12.3257 24.6207 11.4552 24.4539 10.6151 24.1819C6.02367 22.6965 2.84378 18.2281 3.18267 13.2003C3.58546 7.27471 8.72953 2.78013 14.6572 3.18292C20.5848 3.58571 25.0873 8.73764 24.674 14.6653C24.6254 15.3903 24.5038 16.1085 24.311 16.8091C24.0908 17.6145 23.7748 18.3905 23.3698 19.1206C23.0917 19.625 22.8497 20.0335 22.4652 20.4871C22.4426 20.5132 22.4148 20.5344 22.3837 20.5492C22.3525 20.5641 22.3186 20.5724 22.2841 20.5736C22.2496 20.5747 22.2152 20.5688 22.1831 20.5561C22.151 20.5434 22.1219 20.5242 22.0975 20.4997L21.5736 20.0526L21.1725 22.5884L21.6251 23.0421C21.8334 23.2505 22.116 23.3676 22.4107 23.3676C22.7054 23.3676 22.988 23.2505 23.1964 23.0421L23.4405 22.7981C23.789 22.4239 24.1155 22.0299 24.4184 21.618C25.877 19.6328 26.7372 17.2717 26.8975 14.8135C27.3872 7.64974 21.9708 1.43925 14.8059 0.955798Z" fill="white"/>
<path d="M17.6499 16.4146C18.1811 16.8419 18.2715 17.6293 17.7563 18.0759C16.7664 18.9341 15.5449 19.4981 14.2314 19.6882C12.5077 19.9376 10.7535 19.5247 9.32203 18.5326C7.89056 17.5405 6.88815 16.0428 6.51664 14.3413C6.14514 12.6397 6.43213 10.8605 7.31984 9.36207C8.20755 7.86361 9.63003 6.75714 11.3009 6.26546C12.9717 5.77378 14.7667 5.93341 16.3246 6.71221C17.8824 7.49101 19.0873 8.83113 19.6967 10.4627C20.1611 11.706 20.2533 13.0482 19.9762 14.3287C19.832 14.9951 19.098 15.2942 18.468 15.0335C17.8381 14.7728 17.5582 14.0476 17.635 13.3701C17.7127 12.6843 17.6294 11.9838 17.3839 11.3265C16.993 10.2798 16.22 9.42012 15.2206 8.92051C14.2212 8.4209 13.0697 8.31849 11.9978 8.63391C10.926 8.94933 10.0134 9.65914 9.44395 10.6204C8.87448 11.5817 8.69037 12.7231 8.92869 13.8146C9.16702 14.9062 9.81008 15.867 10.7284 16.5034C11.6467 17.1399 12.772 17.4048 13.8778 17.2447C14.5723 17.1442 15.2266 16.8808 15.7908 16.4831C16.348 16.0903 17.1186 15.9874 17.6499 16.4146Z" fill="white"/>
<path d="M11.1669 14.3874C10.8443 14.5916 10.4098 14.4969 10.2737 14.1402C10.1084 13.707 10.0311 13.2428 10.0492 12.7748C10.0762 12.0752 10.315 11.4003 10.734 10.8394C11.153 10.2785 11.7325 9.85805 12.3957 9.63375C12.8394 9.48372 13.3065 9.42617 13.7688 9.4618C14.1494 9.49114 14.3635 9.88099 14.2591 10.2482C14.1547 10.6155 13.7674 10.8159 13.3862 10.8375C13.2008 10.8479 13.0166 10.8833 12.8387 10.9435C12.4407 11.0781 12.0931 11.3303 11.8416 11.6668C11.5902 12.0034 11.4469 12.4083 11.4307 12.8281C11.4235 13.0158 11.4418 13.2024 11.4844 13.3832C11.5718 13.7548 11.4894 14.1831 11.1669 14.3874Z" fill="white"/>
<path d="M17.726 16.5013L22.1292 20.5341L21.2773 22.7193L16.0551 18.0723L17.726 16.5013Z" fill="white"/>
<path d="M17.1662 19.0527C16.8065 18.8528 16.4129 19.0005 16.2356 19.0796L16.8329 18.7193L17.1662 19.0527Z" fill="white"/>
</svg>
