<svg width="16" height="16" viewBox="0 0 16 16" fill="none" xmlns="http://www.w3.org/2000/svg">
<path fill-rule="evenodd" clip-rule="evenodd" d="M1.6045 3.78974H0.666667C0.29848 3.78974 0 3.49586 0 3.13333C0 2.77081 0.29848 2.47692 0.666667 2.47692H1.6045C1.88569 1.61989 2.70265 1 3.66667 1C4.63068 1 5.44767 1.61989 5.72887 2.47692H15.3333C15.7015 2.47692 16 2.77081 16 3.13333C16 3.49586 15.7015 3.78974 15.3333 3.78974H5.72887C5.44767 4.64677 4.63068 5.26667 3.66667 5.26667C2.70265 5.26667 1.88569 4.64677 1.6045 3.78974ZM2.5 3.13333C2.5 2.49891 3.02233 1.98462 3.66667 1.98462C4.311 1.98462 4.83333 2.49891 4.83333 3.13333C4.83333 3.76775 4.311 4.28205 3.66667 4.28205C3.02233 4.28205 2.5 3.76775 2.5 3.13333Z" fill="#646464"/>
<path fill-rule="evenodd" clip-rule="evenodd" d="M0.666667 8.78974H10.2972C10.5784 9.64675 11.3953 10.2667 12.3594 10.2667C13.3234 10.2667 14.1403 9.64675 14.4215 8.78974H15.3333C15.7015 8.78974 16 8.49587 16 8.13333C16 7.7708 15.7015 7.47692 15.3333 7.47692H14.4215C14.1403 6.61991 13.3234 6 12.3594 6C11.3953 6 10.5784 6.61991 10.2972 7.47692H0.666667C0.29848 7.47692 0 7.7708 0 8.13333C0 8.49587 0.29848 8.78974 0.666667 8.78974ZM12.3594 6.98462C11.7151 6.98462 11.1927 7.49891 11.1927 8.13333C11.1927 8.76775 11.7151 9.28205 12.3594 9.28205C13.0037 9.28205 13.5261 8.76775 13.5261 8.13333C13.5261 7.49891 13.0037 6.98462 12.3594 6.98462Z" fill="#646464"/>
<path fill-rule="evenodd" clip-rule="evenodd" d="M5.60447 13.7897H0.666667C0.29848 13.7897 0 13.4959 0 13.1333C0 12.7708 0.29848 12.4769 0.666667 12.4769H5.60447C5.88567 11.6199 6.70267 11 7.66667 11C8.63067 11 9.44767 11.6199 9.72887 12.4769H15.3333C15.7015 12.4769 16 12.7708 16 13.1333C16 13.4959 15.7015 13.7897 15.3333 13.7897H9.72887C9.44767 14.6468 8.63067 15.2667 7.66667 15.2667C6.70267 15.2667 5.88567 14.6468 5.60447 13.7897ZM6.5 13.1333C6.5 12.4989 7.02233 11.9846 7.66667 11.9846C8.311 11.9846 8.83333 12.4989 8.83333 13.1333C8.83333 13.7678 8.311 14.2821 7.66667 14.2821C7.02233 14.2821 6.5 13.7678 6.5 13.1333Z" fill="#646464"/>
</svg>
