<svg width="16" height="16" viewBox="0 0 16 16" fill="none" xmlns="http://www.w3.org/2000/svg">
<path d="M15.7583 8.77437L13.7645 6.88107C13.5345 6.6644 13.1975 6.60663 12.9078 6.73163C12.6214 6.8544 12.4442 7.11995 12.4442 7.42523V8.88853H10.6665V4.55444C10.6665 4.20167 10.5248 3.86001 10.2748 3.61029L7.94486 1.28033C7.69487 1.03034 7.35598 0.888672 7.00349 0.888672H1.33303C0.597212 0.89145 0 1.48866 0 2.22448V13.7776C0 14.5134 0.597212 15.1106 1.33303 15.1106H9.33345C10.0693 15.1106 10.6665 14.5134 10.6665 13.7776V10.6663H9.77789V13.7776C9.77789 14.0221 9.57789 14.2221 9.33345 14.2221H1.33303C1.08859 14.2221 0.888596 14.0221 0.888596 13.7776V2.22448C0.888596 1.98004 1.08859 1.77755 1.33303 1.77755H6.22295V4.66833C6.22295 5.03777 6.52016 5.33304 6.8896 5.33304H9.77789V8.88853H4.66659C4.54381 8.88853 4.44437 8.98798 4.44437 9.11075V9.55519C4.44437 9.67796 4.54381 9.77741 4.66659 9.77741H12.4442V11.2404C12.4442 11.5454 12.6214 11.8113 12.9078 11.934C13.3225 12.1132 13.6545 11.8893 13.7656 11.7843L15.7578 9.89213C15.9139 9.74407 16 9.54547 16 9.33325C16 9.12103 15.9139 8.92187 15.7583 8.77437ZM7.11182 4.44611V1.79393C7.1896 1.81338 7.25904 1.85227 7.31737 1.9106L9.64733 4.24056C9.70566 4.29889 9.74455 4.36833 9.764 4.44611H7.11182ZM13.3331 10.9685V7.69744L15.0553 9.33297L13.3331 10.9685Z" fill="#646464"/>
</svg>
