<svg width="12" height="14" viewBox="0 0 12 14" fill="none" xmlns="http://www.w3.org/2000/svg">
<path d="M6 2.625C4.55256 2.625 3.375 3.80256 3.375 5.25C3.375 6.69744 4.55256 7.875 6 7.875C7.44744 7.875 8.625 6.69744 8.625 5.25C8.625 3.80256 7.44744 2.625 6 2.625ZM6 7C5.03504 7 4.25 6.21496 4.25 5.25C4.25 4.28504 5.03504 3.5 6 3.5C6.96496 3.5 7.75 4.28504 7.75 5.25C7.75 6.21496 6.96496 7 6 7ZM6 0C3.1005 0 0.75 2.3505 0.75 5.25C0.75 7.36677 1.48746 7.95788 5.46046 13.7175C5.72115 14.0941 6.27883 14.0942 6.53958 13.7175C10.5125 7.95788 11.25 7.36677 11.25 5.25C11.25 2.3505 8.89951 0 6 0ZM6 12.9591C2.19115 7.45085 1.625 7.01351 1.625 5.25C1.625 4.08138 2.08008 2.98274 2.90641 2.15641C3.73274 1.33008 4.83139 0.875 6 0.875C7.16862 0.875 8.26727 1.33008 9.09359 2.15641C9.91992 2.98274 10.375 4.08138 10.375 5.25C10.375 7.0134 9.80921 7.45036 6 12.9591Z" fill="white"/>
</svg>
